<svg width="28" height="28" viewBox="0 0 28 28" fill="none" xmlns="http://www.w3.org/2000/svg">
<path d="M23.3333 11.6668C23.3333 17.492 16.8712 23.5587 14.7012 25.4323C14.499 25.5843 14.2529 25.6665 14 25.6665C13.7471 25.6665 13.501 25.5843 13.2988 25.4323C11.1288 23.5587 4.66666 17.492 4.66666 11.6668C4.66666 9.19148 5.64999 6.81751 7.40033 5.06717C9.15067 3.31683 11.5246 2.3335 14 2.3335C16.4753 2.3335 18.8493 3.31683 20.5997 5.06717C22.35 6.81751 23.3333 9.19148 23.3333 11.6668Z" stroke="white" stroke-width="2.33333" stroke-linecap="round" stroke-linejoin="round"/>
<path d="M14 15.1665C15.933 15.1665 17.5 13.5995 17.5 11.6665C17.5 9.73351 15.933 8.1665 14 8.1665C12.067 8.1665 10.5 9.73351 10.5 11.6665C10.5 13.5995 12.067 15.1665 14 15.1665Z" stroke="white" stroke-width="2.33333" stroke-linecap="round" stroke-linejoin="round"/>
</svg>
